<svg width="500" height="700" viewBox="0 0 500 700" fill="none" xmlns="http://www.w3.org/2000/svg">
  <defs>
    <linearGradient id="card-paper" x1="250" y1="32" x2="250" y2="668" gradientUnits="userSpaceOnUse">
      <stop stop-color="#F8F4EB"/>
      <stop offset="1" stop-color="#E9DFD1"/>
    </linearGradient>
    <radialGradient id="card-glow" cx="0" cy="0" r="1" gradientUnits="userSpaceOnUse" gradientTransform="translate(250 336) rotate(90) scale(224 168)">
      <stop stop-color="#FFFFFF" stop-opacity="0.7"/>
      <stop offset="1" stop-color="#F7EFE4" stop-opacity="0"/>
    </radialGradient>
    <linearGradient id="frame-stroke" x1="250" y1="40" x2="250" y2="660" gradientUnits="userSpaceOnUse">
      <stop stop-color="#FDFCF7"/>
      <stop offset="1" stop-color="#B7A890"/>
    </linearGradient>
  </defs>
  <rect x="10" y="10" width="480" height="680" rx="88" fill="url(#card-paper)"/>
  <rect x="18" y="18" width="464" height="664" rx="80" fill="url(#card-glow)" fill-opacity="0.75"/>
  <rect x="20" y="20" width="460" height="660" rx="78" stroke="url(#frame-stroke)" stroke-width="12"/>
  <rect x="46" y="46" width="408" height="608" rx="60" stroke="#D3C4AE" stroke-width="3"/>
  <path d="M188 86H312" stroke="#C8B598" stroke-width="4" stroke-linecap="round" opacity="0.65"/>
  <path d="M188 614H312" stroke="#C8B598" stroke-width="4" stroke-linecap="round" opacity="0.65"/>
  <circle cx="250" cy="350" r="112" stroke="#DCCCB5" stroke-width="3" opacity="0.42"/>
  <circle cx="250" cy="350" r="84" stroke="#E9DECC" stroke-width="2" opacity="0.5"/>
  <path d="M250 214L262 242H292L268 260L278 288L250 272L222 288L232 260L208 242H238L250 214Z" fill="#E3D5BE" fill-opacity="0.62"/>
</svg>
